<?xml version="1.0" encoding="UTF-8"?>
<svg version="1.1" xmlns="http://www.w3.org/2000/svg" width="24" height="24">
<path d="M0 0 C3.34265205 1.20706879 3.94704566 1.92056849 6 5 C6.7878327 11.97794677 6.7878327 11.97794677 3.6875 16 C1 18 1 18 -2 18 C-2 19.32 -2 20.64 -2 22 C-2.66 22 -3.32 22 -4 22 C-4 20.68 -4 19.36 -4 18 C-4.763125 17.9175 -5.52625 17.835 -6.3125 17.75 C-9 17 -9 17 -10.8125 15.4375 C-12.51428245 11.9443676 -12.72828115 8.8136873 -12 5 C-8.47401301 0.41621691 -5.65729638 -0.33943778 0 0 Z M-5 2 C-1 3 -1 3 -1 3 Z M-9 5 C-8 7 -8 7 -8 7 Z M2 5 C3 7 3 7 3 7 Z M-5 6 C-1 7 -1 7 -1 7 Z M-10 7 C-10 8.65 -10 10.3 -10 12 C-9.01 12.495 -9.01 12.495 -8 13 C-8.33 11.02 -8.66 9.04 -9 7 C-9.33 7 -9.66 7 -10 7 Z M3 7 C2.67 8.98 2.34 10.96 2 13 C2.66 12.67 3.32 12.34 4 12 C4 10.35 4 8.7 4 7 C3.67 7 3.34 7 3 7 Z M-7 8 C-6 10 -6 10 -6 10 Z M0 8 C1 10 1 10 1 10 Z M-7 14 C-6.67 14.66 -6.34 15.32 -6 16 C-5.34 16 -4.68 16 -4 16 C-4 15.34 -4 14.68 -4 14 C-4.99 14 -5.98 14 -7 14 Z M-2 14 C-2 14.66 -2 15.32 -2 16 C-1.01 15.67 -0.02 15.34 1 15 C0.01 14.67 -0.98 14.34 -2 14 Z " fill="#C6C6C6" transform="translate(15,1)"/>
</svg>
